<?xml version="1.0" standalone="no"?><!DOCTYPE svg PUBLIC "-//W3C//DTD SVG 1.1//EN" "http://www.w3.org/Graphics/SVG/1.1/DTD/svg11.dtd"><svg t="1578158009393" class="icon" viewBox="0 0 1024 1024" version="1.1" xmlns="http://www.w3.org/2000/svg" p-id="852" xmlns:xlink="http://www.w3.org/1999/xlink" width="200" height="200"><defs><style type="text/css"></style></defs><path d="M121.6 0.85333333c-23.46666667 6.61333333-43.73333333 21.33333333-54.82666667 39.89333334-11.09333333 18.56-13.44 32-13.44 74.88V153.6h-8.96c-30.08 0.21333333-50.34666667 30.29333333-38.18666666 56.53333333 4.69333333 10.24 11.52 16.85333333 21.97333333 21.33333334 6.61333333 2.56 18.34666667 3.2 65.06666667 3.2 55.25333333 0 57.38666667-0.21333333 65.49333333-4.90666667 4.69333333-2.56 11.30666667-8.32 14.93333333-12.8 5.97333333-7.46666667 6.61333333-9.81333333 6.61333334-22.82666667s-0.64-15.36-6.61333334-22.82666666c-7.89333333-9.6-20.90666667-17.70666667-29.01333333-17.70666667H138.66666667V117.33333333c0-33.49333333 0.21333333-36.26666667 4.05333333-38.4 2.77333333-1.49333333 100.48-2.13333333 300.8-2.13333333C737.49333333 76.8 740.26666667 76.8 744.53333333 81.06666667c4.05333333 4.05333333 4.26666667 7.04 4.26666667 76.8v72.53333333l5.12 3.2c3.62666667 2.56 6.18666667 2.77333333 10.02666667 1.28 2.77333333-1.28 19.41333333-16 36.69333333-32.85333333l31.78666667-30.50666667-0.85333334-52.26666667c-0.64-48.21333333-1.06666667-52.90666667-5.76-64.42666666-9.38666667-23.68-28.16-41.81333333-53.12-51.41333334l-12.16-4.48-314.66666666-0.42666666c-247.46666667-0.21333333-316.8 0.21333333-324.26666667 2.34666666zM876.8 218.24c-11.52 4.26666667-13.01333333 5.33333333-36.05333333 26.66666667-13.65333333 12.58666667-21.54666667 21.54666667-21.54666667 24.32 0 5.33333333 139.73333333 149.54666667 145.92 150.61333333 6.4 1.28 46.50666667-40.96 51.41333333-53.76 5.76-15.14666667 3.62666667-39.04-4.90666666-57.81333333-27.73333333-58.88-95.36-104.10666667-134.82666667-90.02666667zM55.89333333 275.62666667c-1.92 1.92-2.56 15.57333333-2.56 48V369.06666667h-9.6c-21.97333333 0-41.6 19.41333333-41.6 41.17333333 0 10.66666667 8.32 25.17333333 18.77333334 32.42666667l9.38666666 6.4h122.24l9.17333334-6.18666667c18.77333333-12.8 24.32-37.76 12.16-55.04-7.25333333-10.24-17.49333333-16.85333333-28.58666667-18.56l-7.68-1.28-0.64-44.58666667c-0.21333333-28.58666667-1.28-45.65333333-2.77333333-47.57333333-3.2-3.84-74.45333333-4.05333333-78.29333334-0.21333333zM638.50666667 441.6c-108.16 104.96-148.69333333 145.28-151.68 152.10666667-4.48 9.17333333-34.56 145.28-34.56 155.94666666 0 8.53333333 6.18666667 17.70666667 14.72 21.76 7.46666667 3.62666667 9.17333333 3.41333333 83.41333333-10.66666666 61.44-11.73333333 77.65333333-15.57333333 85.76-20.05333334 8.74666667-5.12 290.34666667-277.54666667 298.02666667-288.42666666 2.56-3.84-2.77333333-9.81333333-70.18666667-78.93333334-40.32-40.96-74.24-74.66666667-75.52-74.66666666-1.49333333 0-68.90666667 64.42666667-149.97333333 142.93333333z m149.33333333-55.04c6.82666667 3.41333333 9.81333333 8.32 10.02666667 15.14666667 0 5.12-9.6 15.36-61.22666667 66.13333333-33.92 33.06666667-82.13333333 80.42666667-107.52 105.38666667-43.09333333 42.66666667-46.50666667 45.44-53.76 45.44-10.02666667 0-16.42666667-5.97333333-16.42666667-15.57333334 0-6.61333333 6.82666667-14.08 90.24-95.57333333 114.13333333-112 126.29333333-123.52 130.56-123.52 1.92 0 5.54666667 1.06666667 8.10666667 2.56zM58.02666667 489.81333333c-4.48 3.2-4.69333333 4.26666667-4.69333334 44.37333334v41.38666666l-11.73333333 0.85333334c-15.14666667 1.28-27.94666667 9.81333333-34.56 23.04-10.24 20.05333333-2.34666667 42.66666667 18.98666667 53.54666666 7.25333333 3.62666667 13.01333333 4.05333333 66.13333333 4.05333334 56.32 0 58.45333333-0.21333333 66.77333333-4.90666667 4.48-2.56 11.30666667-8.74666667 14.72-13.86666667 16.21333333-23.04-0.21333333-57.81333333-29.01333333-61.65333333l-8.10666667-1.28v-41.17333333c0-51.41333333 3.2-47.78666667-41.6-47.78666667-25.6 0-33.06666667 0.64-36.90666666 3.41333333z" fill="#e6e6e6" p-id="853"></path><path d="M813.44 648.53333333c-3.2 2.13333333-19.2 17.06666667-35.2 33.49333334l-29.44 29.86666666v112.85333334c0 98.77333333-0.42666667 113.49333333-3.41333333 117.76l-3.2 4.69333333H143.14666667l-3.2-4.69333333c-2.13333333-2.77333333-3.41333333-9.17333333-3.41333334-15.57333334 0-5.97333333-1.06666667-11.94666667-2.56-13.44-1.70666667-1.70666667-13.65333333-2.56-39.46666666-2.56-42.66666667 0-41.17333333-0.85333333-41.17333334 21.76 0 45.65333333 28.58666667 81.70666667 72.53333334 91.09333334 8.74666667 1.92 89.81333333 2.34666667 323.2 1.92l311.46666666-0.64 12.16-4.90666667c25.81333333-10.45333333 43.73333333-27.73333333 53.54666667-51.62666667 4.69333333-11.73333333 4.69333333-11.94666667 5.33333333-162.77333333 0.42666667-97.70666667-0.21333333-152.32-1.49333333-154.88-3.2-5.76-9.6-6.61333333-16.64-2.34666667zM55.46666667 699.52c-1.28 2.56-2.13333333 21.97333333-2.13333334 48V791.46666667h-8.53333333c-4.69333333 0-12.16 1.49333333-16.64 3.2-33.49333333 14.08-34.34666667 58.66666667-1.49333333 73.81333333 7.68 3.62666667 14.72 4.05333333 65.28 4.05333333 55.25333333 0 56.96-0.21333333 66.13333333-4.90666666 5.12-2.77333333 12.16-9.17333333 15.78666667-14.08 12.58666667-17.92 6.82666667-43.52-12.8-55.68-4.05333333-2.56-11.30666667-5.12-16-5.76l-8.53333334-1.28v-45.01333334c0-32.42666667-0.64-45.86666667-2.56-47.78666666-1.70666667-1.70666667-13.65333333-2.56-39.46666666-2.56-34.13333333 0-36.90666667 0.21333333-39.04 4.05333333z" fill="#1296db" p-id="854"></path></svg>