<?xml version="1.0" encoding="utf-8"?>
<!-- Generator: Adobe Illustrator 23.0.2, SVG Export Plug-In . SVG Version: 6.00 Build 0)  -->
<svg version="1.1" id="图层_1" xmlns="http://www.w3.org/2000/svg" xmlns:xlink="http://www.w3.org/1999/xlink" x="0px" y="0px"
	 viewBox="0 0 200 200" style="enable-background:new 0 0 200 200;" xml:space="preserve">
<style type="text/css">
	.st0{fill:#E3E3E3;}
	.st1{fill:#1296DB;}
</style>
<path class="st0" d="M94.4-1.2C77.1,1,62.3,11.8,54.7,27.8c-1,2.1-2.4,6.1-3.1,8.8c-1.2,4.7-1.3,5.3-1.5,15.6l-0.2,10.8H35.5
	c-14.2,0-14.5,0-16.3,0.9c-1,0.5-2.3,1.6-2.8,2.4l-1,1.4v49.8c0,46.7,0,49.9,0.7,51.2c0.8,1.5,34.4,31.7,35.8,32.3
	c1.6,0.6,4.8,0.4,6.1-0.4c2.3-1.4,34.6-30.5,35.3-31.9c0.7-1.3,0.7-4.5,0.7-51.2V67.6l-1-1.4c-0.5-0.8-1.8-1.8-2.8-2.4
	c-1.8-0.9-2.1-0.9-16.4-0.9H59.5l0.2-10.5c0.2-10,0.3-10.7,1.3-14.3c2.7-9,7.5-16,14.8-21.6c7.2-5.5,15.4-8.3,24.9-8.3
	c11.9,0,21.8,4.3,30.1,12.9c1.4,1.5,2.6,2.9,2.6,3.2c0,0.2-1.1,0.9-2.4,1.5c-8,3.5-15.3,10.7-19.1,18.9c-2.4,5.3-3.3,9.7-3.3,15.9
	c0,6.7,1,10.7,3.9,16.7c4.4,8.9,12.7,16.3,21.4,19l3.2,1v49c0,35,0.1,49.3,0.5,50c0.8,1.7,2,2,9.3,2c6.3,0,6.9-0.1,7.9-0.9
	c1-0.8,1.1-1,1.1-4.6v-3.7h7.2c6.7,0,7.3-0.1,8.3-0.9l1.1-0.8V175l-1.1-0.8c-1-0.8-1.7-0.9-8.3-0.9h-7.3v-5.8l4-0.2
	c3.4-0.1,4-0.3,4.9-1.1c0.9-0.9,1-1.3,1-6.8c0-5.5,0-5.9-1-6.8c-0.8-0.8-1.5-1-4.8-1.2l-3.8-0.2V97.3l2.9-1.1
	c6.1-2.3,9.6-4.5,14.2-8.8c10.5-9.9,14.3-25,9.8-38.8c-1.5-4.6-3.4-8-6.6-12c-6.9-8.6-18.2-14-29.1-14h-3.2l-2.2-3.1
	c-5.6-7.8-14.6-14.6-23.8-17.9C111-1,101.3-2.1,94.4-1.2L94.4-1.2z M153.2,41.3c5.5,3.1,7.9,9.6,5.8,15.8c-1,3.1-4.9,7-8,8.1
	c-3,1-7.4,0.8-10.1-0.5c-9-4.5-10.2-17.2-2.1-22.8c1.2-0.8,1.8-1,2.1-0.8c0.3,0.3,0.6,3.3,0.8,7c0.3,6.4,0.3,6.5,1.5,7.8
	c1.5,1.5,3.3,2,5.3,1.1c2.6-1.1,3-2.4,2.7-9.5c-0.1-3.3-0.3-6.4-0.5-6.8C150.2,39.7,150.7,39.8,153.2,41.3L153.2,41.3z M51.6,92.1
	c1.5,1.4,4.3,1.7,5.8,0.5c1.8-1.3,2.2-2.7,2.2-8.1v-5l2.1,1.2c2.3,1.3,4.3,3.4,5.8,6.4c0.8,1.5,1,2.5,1,5.6c0,3.3-0.1,4-1.2,6.1
	c-0.7,1.4-2,3.2-3.3,4.3c-6.9,6.2-17.8,4.1-21.9-4.3c-1-2.1-1.2-2.9-1.2-6.1c0-3.3,0.2-4,1.2-6c1.4-2.6,3.8-5.1,6-6.3l1.6-0.8
	l0.2,5.6l0.2,5.6L51.6,92.1L51.6,92.1z"/>
<path class="st1" d="M143.9,22.5l-2.2-3.1c-5.6-7.8-14.6-14.6-23.8-17.9C111-1,101.3-2.1,94.4-1.2h0C77.1,1,62.3,11.8,54.7,27.8
	c-1,2.1-2.4,6.1-3.1,8.8c-1.2,4.7-1.3,5.3-1.5,15.6l-0.2,10.8H35.5c-14.2,0-14.5,0-16.3,0.9c-1,0.5-2.3,1.6-2.8,2.4l-1,1.4v49.8
	c0,46.7,0,49.9,0.7,51.2c0.8,1.5,34.4,31.7,35.8,32.3c1.6,0.6,4.8,0.4,6.1-0.4c2.3-1.4,34.6-30.5,35.3-31.9
	c0.7-1.3,0.7-4.5,0.7-51.2V67.6l-1-1.4c-0.5-0.8-1.8-1.8-2.8-2.4c-1.8-0.9-2.1-0.9-16.4-0.9H59.5l0.2-10.5c0.2-10,0.3-10.7,1.3-14.3
	c2.7-9,7.5-16,14.8-21.6c7.2-5.5,15.4-8.3,24.9-8.3c11.9,0,21.8,4.3,30.1,12.9c1.4,1.5,2.6,2.9,2.6,3.2 M140.9,41.1
	c0.1,0.3,0.6,3.3,0.8,7c0.3,6.4,0.3,6.5,1.5,7.8c1.5,1.5,3.3,2,5.3,1.1c2.6-1.1,3-2.4,2.7-9.5c-8.9-47.5-17.6-22.7-17.8-23.1
	 M51.6,92.1c1.5,1.4,4.3,1.7,5.8,0.5c1.8-1.3,2.2-2.7,2.2-8.1v-5l2.1,1.2c2.3,1.3,4.3,3.4,5.8,6.4c0.8,1.5,1,2.5,1,5.6
	c0,3.3-0.1,4-1.2,6.1c-0.7,1.4-2,3.2-3.3,4.3c-6.9,6.2-17.8,4.1-21.9-4.3c-1-2.1-1.2-2.9-1.2-6.1c0-3.3,0.2-4,1.2-6
	c1.4-2.6,3.8-5.1,6-6.3l1.6-0.8l0.2,5.6l0.2,5.6L51.6,92.1L51.6,92.1z"/>
</svg>
