<?xml version="1.0" standalone="no"?><!DOCTYPE svg PUBLIC "-//W3C//DTD SVG 1.1//EN" "http://www.w3.org/Graphics/SVG/1.1/DTD/svg11.dtd"><svg t="1578158056652" class="icon" viewBox="0 0 1024 1024" version="1.1" xmlns="http://www.w3.org/2000/svg" p-id="852" xmlns:xlink="http://www.w3.org/1999/xlink" width="200" height="200"><defs><style type="text/css"></style></defs><path d="M391.36521482 85.77327408c-42.23431111 10.43721482-77.91502222 48.30245925-85.68225185 91.7504-1.69908148 8.73813333-2.42725925 85.43952592-1.94180742 217.2397037l0.72817778 203.40432592 5.82542222 14.56355555c3.15543703 8.00995555 8.49540741 18.93262222 11.89357037 24.02986667 14.56355555 23.30168889 44.66157037 43.93339259 72.81777778 49.75881483 8.49540741 1.69908148 60.19602963 2.66998518 152.43188148 2.66998517h139.81013334l88.10951111 49.75881483c48.54518518 27.42802963 89.56586667 49.75881482 91.50767407 49.7588148 4.85451852 0 9.22358518-5.09724445 9.22358519-10.92266666 0-2.66998518-6.06814815-23.05896297-13.34992592-44.9042963s-13.34992592-40.77795555-13.34992594-41.74885926c0-0.9709037 26.69985185-1.94180741 59.46785186-1.94180741 33.7389037 0 64.80782222-1.21362963 72.0896-2.66998517 31.31164445-6.5536 61.65238518-29.36983703 76.94411852-58.0114963 14.56355555-27.42802963 14.80628148-28.15620741 14.80628148-239.08503704 0-122.33386667-0.9709037-197.5789037-2.66998519-207.53066666-7.5245037-47.08882963-45.38974815-87.38133333-91.50767407-96.84764445-19.41807408-4.12634075-570.1632-3.39816297-587.15401481 0.72817778zM917.3522963 288.69214815v12.1362963H456.17303703v-24.2725926h461.17925927v12.1362963z m-0.48545185 86.65315555l0.72817777 12.86447408H456.17303703v-11.65084445c0-6.5536 0.72817778-12.62174815 1.69908149-13.34992592 0.72817778-0.9709037 104.37214815-1.45635555 229.86145185-1.21362963l228.4050963 0.72817777 0.72817778 12.62174815z m0.48545185 90.53677038v12.13629629H456.17303703v-24.27259259h461.17925927v12.1362963z" fill="#e6e6e6" p-id="853"></path><path d="M46.93712592 357.86903703c-49.03063703 10.67994075-84.2258963 49.03063703-91.02222222 99.51762964-1.45635555 12.37902222-2.18453333 66.5069037-1.69908148 151.7037037 0.72817778 130.58654815 0.9709037 132.52835555 6.31087408 147.57736296 13.1072 36.65161482 37.37979259 61.16693333 72.57505185 73.78868149 9.22358518 3.15543703 23.54441482 5.33997037 41.02068148 6.5536l27.1853037 1.45635555-14.32082963 47.33155555c-7.76722963 25.97167408-14.32082963 47.57428148-14.32082962 47.81700741 0 1.69908148 8.25268148 8.00995555 10.67994074 8.00995556 1.69908148 0 39.56432592-23.54441482 84.22589629-52.18607407l81.07045926-52.18607407h102.18761481c58.9824 0 107.77031111-0.9709037 115.29481482-2.42725927 21.11715555-4.12634075 46.11792592-17.23354075 60.92420741-32.28254815 23.30168889-23.54441482 37.37979259-61.16693333 27.42802962-72.0896-4.12634075-4.61179259-7.76722963-4.85451852-87.1386074-4.85451851-93.44948148 0-103.8866963-1.45635555-132.77108148-16.01991112-25.00077037-12.37902222-50.24426667-37.86524445-61.65238518-62.13783703-15.04900741-31.55437037-15.77718518-38.59342222-15.77718519-167.48088889v-115.78026667l-6.31087408-4.85451852c-6.31087408-4.85451852-8.98085925-5.09724445-97.81854815-4.85451851-66.5069037 0-95.39128889 0.9709037-106.07122963 3.39816295z" fill="#1296db" p-id="854"></path></svg>