<?xml version="1.0" encoding="utf-8"?>
<!-- Generator: Adobe Illustrator 23.0.2, SVG Export Plug-In . SVG Version: 6.00 Build 0)  -->
<svg version="1.1" id="图层_1" xmlns="http://www.w3.org/2000/svg" xmlns:xlink="http://www.w3.org/1999/xlink" x="0px" y="0px"
	 viewBox="0 0 200 200" style="enable-background:new 0 0 200 200;" xml:space="preserve">
<style type="text/css">
	.st0{fill:#E6E6E6;}
	.st1{fill:#1296DB;}
</style>
<path class="st0" d="M93.4,19.2c-13.6,3.1-24.5,15.3-27.8,31.2c-1.1,5.5-1.2,15-0.2,20.4c3.1,16,13.7,28.3,27.3,31.8
	c7.3,1.9,14.6,0.7,21.8-3.6c7.4-4.4,12.9-10.9,16.3-19.7c2.3-5.9,3.3-11,3.3-18.2c0-7.4-0.9-12.3-3.5-18.6
	c-4.3-10.8-12.5-19.1-22.1-22.3C105,19.1,96.6,18.5,93.4,19.2L93.4,19.2z M50.1,83.5c1.2-2.5,2.3-6.5,3-10.1 M53.1,73.4
	c0.4-2.1,0.6-4.1,0.6-5.6c0-14.6-8.4-27.6-20.1-31.3c-3.6-1.1-9.5-1.1-12.9,0C14.5,38.4,8.3,43.8,5,50C-6.3,71.5,6.3,99.5,27.2,99.5
	c9.4,0,18.4-6.3,23-15.9 M165.9,36.5c-9.5,3.1-17.2,12.8-19.2,24.2c-0.9,5.5-0.8,9.3,0.3,14.7c5.1,24,29.8,32.1,44.2,14.6
	c3.9-4.8,6.7-11.6,7.5-18.3c1.1-9.7-1.6-19.5-7.5-26.7C184.5,36.9,174.7,33.6,165.9,36.5L165.9,36.5z M12.7,105.9
	c-6.6,1.8-12.3,5.6-17,11.2c-7,8.5-10.2,19-9.9,31.9c0.1,6.4,0.1,6.5,1.8,8.4l1.6,2l22.2,0.2c19.4,0.1,22.2,0.1,23-0.8
	c0.7-0.7,0.9-2.4,1.1-8.3c0.5-13.7,3.8-22.8,11.6-32.4c3.1-3.9,3.7-4.8,3.5-6.3c-0.2-2-2-3.4-7.5-5.2c-3-1-5.3-1.3-15.4-1.4
	C18.9,105.1,14.9,105.3,12.7,105.9L12.7,105.9z M157.6,106.2c-3.7,1-8.2,3.2-9,4.5c-1.2,1.8-0.7,3.5,1.8,6.1
	c4.9,4.9,9.4,13.9,11.4,22.4c0.6,2.6,1.1,7.2,1.3,11.3c0.1,3.8,0.5,7.4,0.7,7.9c0.4,1,2,1.1,23.4,1.1c25.2,0,24.3,0.1,25.9-3.6
	c1-2.3,1-11.9,0-17.9c-2.4-14.3-11.4-26.2-23.3-30.9c-3.2-1.2-4.6-1.4-16.4-1.5C163.9,105.4,159.8,105.6,157.6,106.2L157.6,106.2z
	 M70.2,112c-11.8,3.8-21.4,15.5-24.4,29.8c-0.8,4-1,6.7-1,20.2c0,13.4,0.1,15.8,0.8,17.1c1.9,3.4-0.6,3.2,53.9,3.2
	c49.5,0,50.3,0,51.9-1.2c3-2.2,3.2-3.8,3-21c-0.2-14.6-0.3-15.6-1.5-20c-3.6-13.1-11.2-22.6-21.7-27.2l-4.3-1.9l-26.5-0.1
	C75.5,110.8,73.5,110.9,70.2,112L70.2,112z"/>
<path class="st1" d="M50.1,83.5c1.2-2.5,2.3-6.5,3-10.1 M53.1,73.4c0.4-2.1,0.6-4.1,0.6-5.6c0-14.6-8.4-27.6-20.1-31.3
	c-3.6-1.1-9.5-1.1-12.9,0C14.5,38.4,8.3,43.8,5,50C-6.3,71.5,6.3,99.5,27.2,99.5c9.4,0,18.4-6.3,23-15.9 M165.9,36.5
	c-9.5,3.1-17.2,12.8-19.2,24.2c-0.9,5.5-0.8,9.3,0.3,14.7c5.1,24,29.8,32.1,44.2,14.6c3.9-4.8,6.7-11.6,7.5-18.3
	c1.1-9.7-1.6-19.5-7.5-26.7C184.5,36.9,174.7,33.6,165.9,36.5L165.9,36.5z M12.7,105.9c-6.6,1.8-12.3,5.6-17,11.2
	c-7,8.5-10.2,19-9.9,31.9c0.1,6.4,0.1,6.5,1.8,8.4l1.6,2l22.2,0.2c19.4,0.1,22.2,0.1,23-0.8c0.7-0.7,0.9-2.4,1.1-8.3
	c0.5-13.7,3.8-22.8,11.6-32.4c3.1-3.9,3.7-4.8,3.5-6.3c-0.2-2-2-3.4-7.5-5.2c-3-1-5.3-1.3-15.4-1.4
	C18.9,105.1,14.9,105.3,12.7,105.9L12.7,105.9z M157.6,106.2c-3.7,1-8.2,3.2-9,4.5c-1.2,1.8-0.7,3.5,1.8,6.1
	c4.9,4.9,9.4,13.9,11.4,22.4c0.6,2.6,1.1,7.2,1.3,11.3c0.1,3.8,0.5,7.4,0.7,7.9c0.4,1,2,1.1,23.4,1.1c25.2,0,24.3,0.1,25.9-3.6
	c1-2.3,1-11.9,0-17.9c-2.4-14.3-11.4-26.2-23.3-30.9c-3.2-1.2-4.6-1.4-16.4-1.5C163.9,105.4,159.8,105.6,157.6,106.2L157.6,106.2z"
	/>
</svg>
