<?xml version="1.0" standalone="no"?><!DOCTYPE svg PUBLIC "-//W3C//DTD SVG 1.1//EN" "http://www.w3.org/Graphics/SVG/1.1/DTD/svg11.dtd"><svg t="1578165319562" class="icon" viewBox="0 0 1024 1024" version="1.1" xmlns="http://www.w3.org/2000/svg" p-id="947" xmlns:xlink="http://www.w3.org/1999/xlink" width="200" height="200"><defs><style type="text/css"></style></defs><path d="M480 1.2C400.8 8 338.8 25.4 274.6 59 181.4 107.6 102.2 188 55 282 28.6 334.6 12.4 388.2 3.8 452c-3.4 24.4-3.4 95.6 0 120 16.4 121 63.6 217.6 147 301.2 81.8 81.8 177.6 129.4 294.2 146 29.6 4.2 99.2 4.8 127 1 122.4-16.6 224.6-67.4 307.2-152.4 78.8-81.4 125-178.4 141-295.8 3.8-27.8 3.2-97.4-1-127-16.6-116.6-64.2-212.4-146-294.2C791.4 69.2 695.4 21.4 580 5c-20.8-3-82.8-5.4-100-3.8zM612 236c74 17.8 129.6 82.4 135.4 157.4l1.2 16.2 13.6 3.2c53.2 12 100 58.2 113.8 112.4 5.4 21.2 5.4 54.6 0 76-14.4 55.8-55.8 97.8-111.8 113.4-14.2 3.8-21 4.2-108.6 5-51.6 0.4-93.6 0.2-93.6-0.4 0-0.4 9-14 20.2-30.2l20-29.2-3.4-10.4c-1.8-5.8-4-11.2-4.8-12-0.8-1-6.8-1-13.2-0.4l-11.8 1.4-23.8 38.8c-13 21.4-24.8 39.8-26.4 40.8-1.8 1.6-38.8 2-123.2 1.6-115.8-0.8-121.2-1-135.8-5-56.2-15.8-99-59.4-112.6-115.2-4.8-19.4-4.6-53.8 0.6-73.8 4.4-17.2 15-39.8 25.2-53.6 14.6-20 44-43.4 63.8-51l8.6-3.4 1.2-15.2c3-38.4 24.2-69.6 58.4-86.6 31.8-15.6 65.6-14.2 98.2 4.2l10.4 5.8 8.4-13.2c24.4-37.6 64-65.8 107.2-76.4 22.4-5.6 60-5.6 82.8-0.2z" fill="#bfbfbf" p-id="948"></path><path d="M505.6 455.467c-26.453 4.48-86.4 23.04-92.16 28.586-0.64 0.64 2.133 14.507 6.613 30.72L427.947 544l41.6 0.853c27.946 0.427 46.08 1.92 56.106 4.267 8.107 1.707 15.147 2.987 15.787 2.56 0.427-0.64 6.827-23.04 14.08-50.133l13.44-49.28-23.68 0.213c-13.013 0.213-30.933 1.493-39.68 2.987z m98.987 3.84c-1.92 5.12-28.587 104.746-27.947 104.96 0.213 0.213 7.68 3.84 16.853 8.106 20.48 9.814 43.094 24.96 63.36 42.454l16 13.653 34.134-38.4c18.773-21.333 40.32-45.653 48-54.187l13.866-15.786-5.12-4.054c-8.746-6.613-59.306-30.933-81.28-39.04-19.84-7.253-51.626-16.213-68.693-19.2-5.76-1.066-8.32-0.64-9.173 1.494z m-245.12 52.48c-27.52 16.853-58.027 40.32-81.494 63.146C265.813 586.667 256 597.12 256 598.4c0 1.067 4.907 5.333 10.667 9.173l10.666 6.827 11.307-9.173c23.893-19.414 64-40.747 91.093-48.64 5.334-1.494 10.454-3.414 11.307-4.267 1.067-0.853-0.64-10.88-3.84-22.4-7.68-28.8-7.467-28.587-9.173-28.587-0.854 0-9.174 4.694-18.56 10.454z" fill="#D81E06" p-id="949"></path></svg>