<?xml version="1.0" encoding="utf-8"?>
<!-- Generator: Adobe Illustrator 23.0.2, SVG Export Plug-In . SVG Version: 6.00 Build 0)  -->
<svg version="1.1" id="图层_1" xmlns="http://www.w3.org/2000/svg" xmlns:xlink="http://www.w3.org/1999/xlink" x="0px" y="0px"
	 viewBox="0 0 512 512" style="enable-background:new 0 0 512 512;" xml:space="preserve">
<style type="text/css">
	.st0{fill:#1296DB;}
	.st1{fill:#E6E6E6;}
</style>
<g transform="translate(0.000000,512.000000) scale(0.100000,-0.100000)">
	<path class="st0" d="M2470,4993c-160-27-320-142-395-283c-47-90-65-167-65-273c0-126,49-263,122-344l20-22l-68-34
		c-357-181-584-547-584-942c0-476,322-889,793-1017c70-19,107-22,257-22c151,0,187,3,260,23c97,26,242,91,327,148
		c73,48,192,160,250,236c224,290,275,709,130,1054c-47,111-134,240-222,328c-73,73-216,175-291,208l-41,19l43,63
		c63,95,86,163,92,278c6,120-7,186-56,286C2943,4903,2694,5031,2470,4993z"/>
	<path class="st1" d="M1854,1815l-25-25l3-261c3-245,4-262,22-275c29-21,1383-21,1412,0c18,13,19,30,22,275l3,261l-25,25
		c-23,23-33,25-111,25c-114,0-144-13-182-81c-164-291-655-291-813-1c-37,66-72,82-188,82C1886,1840,1877,1838,1854,1815z"/>
	<path class="st1" d="M1438,1608c-289-285-556-755-688-1212c-35-122-37-153-10-206c36-70,34-70,448-70c345,0,370,1,385,18
		c16,17,17,85,17,770c0,669-2,752-16,766C1546,1703,1523,1691,1438,1608z"/>
	<path class="st1" d="M3536,1668c-14-20-16-109-16-761V169l25-24l24-25h348c198,0,363,4,384,10c52,15,90,59,96,113
		c9,75-75,340-180,572c-137,304-347,616-540,803C3595,1697,3564,1708,3536,1668z"/>
	<path class="st1" d="M2509,1035c-31-17-49-60-42-99c12-62,102-88,148-41c44,43,32,119-22,144C2562,1053,2541,1052,2509,1035z"/>
	<path class="st1" d="M2509,655c-77-42-42-165,46-165c90,0,123,125,44,165C2564,673,2543,673,2509,655z"/>
</g>
</svg>
