<?xml version="1.0" standalone="no"?><!DOCTYPE svg PUBLIC "-//W3C//DTD SVG 1.1//EN" "http://www.w3.org/Graphics/SVG/1.1/DTD/svg11.dtd"><svg t="1578158272969" class="icon" viewBox="0 0 1024 1024" version="1.1" xmlns="http://www.w3.org/2000/svg" p-id="1217" xmlns:xlink="http://www.w3.org/1999/xlink" width="200" height="200"><defs><style type="text/css"></style></defs><path d="M276.78666667 19.07000001c-21.97333333 5.97333333-42.45333333 23.68-52.69333333 45.65333332-5.33333333 11.30666667-5.76 14.50666667-6.4 48.42666667-0.64 30.29333333-0.21333333 36.90666667 2.34666667 39.04 2.13333333 1.92 10.45333333 2.56 27.30666666 2.13333334l24.32-0.64000002 1.06666668-31.99999998c0.85333333-26.45333333 1.70666667-33.28 4.90666666-38.18666668 8.32-12.58666667-4.48-11.94666667 272.64-11.52l254.07999999 0.64 7.25333334 7.89333335L818.86666667 88.61666666v682.24l-5.54666666 6.61333335c-7.04 8.53333333-16.42666667 10.88-42.66666667 10.87999999-13.65333333 0-22.18666667 0.85333333-23.89333334 2.56000001-4.05333333 4.05333333-3.41333333 47.36 0.64000001 50.77333333 2.13333333 1.70666667 12.58666667 2.34666667 36.69333333 1.70666666 32.21333333-0.64 34.34666667-0.85333333 46.29333333-6.82666667 16.85333333-8.32 29.86666667-21.76 38.18666667-39.25333333l6.82666666-14.29333333v-704.00000002l-4.90666666-12.15999999c-7.04-17.28-23.04-34.13333333-40.53333333-42.66666666l-14.29333334-7.03999999-264.53333333-0.42666668c-205.22666667-0.21333333-266.66666667 0.21333333-274.34666667 2.34666668z" fill="#e6e6e6" p-id="1218"></path><path d="M137.07733334 214.09933334l-93.98044445 92.61511111 0.68266667 321.99111112 0.68266667 321.9911111 6.144 12.97066666c8.41955555 18.20444445 24.34844445 34.58844445 42.55288889 43.46311112l15.01866666 7.28177776 281.03111111 0.68266669c276.48 0.45511111 281.25866667 0.45511111 295.82222222-4.096 26.16888889-7.96444445 45.056-25.94133333 54.61333334-51.65511112 4.55111111-12.288 4.55111111-14.56355555 4.096-395.03644444l-0.68266666-382.74844444-6.144-12.51555555c-7.96444445-16.15644445-24.34844445-32.54044445-40.5048889-40.50488891l-12.51555555-6.14399999-226.41777779-0.45511111-226.41777777-0.68266667-93.98044444 92.84266667z m534.30044445-29.58222222c4.55111111 2.27555555 9.55733333 7.28177778 11.83288888 11.83288887 3.86844445 7.50933333 4.096 30.03733333 4.096 372.05333336s-0.22755555 364.544-4.096 372.05333332c-2.27555555 4.55111111-7.28177778 9.55733333-11.83288888 11.83288888-7.50933333 3.86844445-25.48622222 4.096-276.48 4.09600001s-268.97066667-0.22755555-276.48-4.09600001c-4.55111111-2.27555555-9.55733333-7.28177778-11.8328889-11.83288888-3.86844445-7.50933333-4.096-27.30666667-4.09600001-317.66755554 0-244.16711111 0.68266667-310.38577778 2.95822224-313.344 2.27555555-3.18577778 9.32977778-3.86844445 53.248-4.32355556 47.104-0.68266667 50.74488889-0.91022222 56.88888889-5.46133334 14.10844445-10.69511111 15.47377778-15.70133333 16.15644443-66.90133334 0.45511111-27.98933333 1.82044445-47.78666667 3.18577779-49.37955555 1.82044445-2.27555555 46.87644445-2.95822222 215.49511111-2.95822221 198.20088889 0 213.44711111 0.22755555 220.95644445 4.09599999z" fill="#e6e6e6" p-id="1219"></path><path d="M154.67521742 314.86972573c-4.41869063 5.0078494-5.0078494 17.38018317-5.00784939 116.35885336v110.76184522l7.65906376 5.89158752c7.65906378 5.89158752 11.48859565 6.1861669 91.61418581 6.18616688h83.66054267l7.06990501-7.36448438 7.36448439-7.06990502v-107.22689271c0-103.98651957-0.29457937-107.5214721-6.1861669-115.18053586l-5.8915875-7.65906376h-87.78465393c-81.30390766 0-88.0792333 0.29457937-92.49792392 5.30242875zM423.62618732 331.66075014v22.09345318l105.45941647-0.58915875 105.16483706-0.88373814 0.88373814-21.50429442 0.88373813-21.20971503H423.62618732v22.09345316zM424.80450481 422.39119782c-0.88373813 2.35663501-1.17831749 12.66691315-0.58915873 22.97719131l0.88373811 18.85308002h209.15135666v-44.18690632l-103.98651956-0.88373815c-85.72259829-0.58915875-103.98651957 0-105.45941648 3.24037314zM423.62618732 555.54107561v22.09345315l105.45941647-0.58915875 105.16483706-0.88373814 0.88373814-21.5042944 0.88373813-21.20971504H423.62618732v22.09345318zM148.48905053 653.0468489c-3.24037312 8.24822251-1.76747625 35.34952507 1.76747626 38.88447759 2.65121438 2.65121438 60.388772 3.5349525 241.2605086 3.53495249 201.19771353 0 238.02013547-0.58915875 240.96592922-4.12411125 2.06205563-2.65121438 3.24037312-11.78317502 2.65121438-22.97719129l-0.88373814-18.55850067-241.84966734-0.88373813c-218.87247606-0.58915875-242.14424673-0.29457937-243.91172298 4.12411126zM148.48905053 770.87859914c-3.24037312 8.24822251-1.76747625 35.34952507 1.76747626 38.88447759 2.65121438 2.65121438 60.388772 3.5349525 241.2605086 3.53495249 201.19771353 0 238.02013547-0.58915875 240.96592922-4.12411125 2.06205563-2.65121438 3.24037312-11.78317502 2.65121438-22.97719129l-0.88373814-18.55850066-241.84966734-0.88373814c-218.87247606-0.58915875-242.14424673-0.29457937-243.91172298 4.12411126zM150.25652679 884.58623811c-3.82953187 3.82953187-4.71327001 34.17120756-1.17831752 40.06279507 2.06205563 2.94579374 52.72970823 3.5349525 243.91172299 2.94579376l241.26050859-0.88373812 0.88373814-18.55850065c0.58915875-11.19401627-0.58915875-20.32597692-2.65121438-22.97719131-2.94579374-3.5349525-39.7682157-4.12411126-240.96592922-4.12411125-180.87173661 0-238.60929422 0.88373813-241.2605086 3.5349525z" fill="#1296db" p-id="1220"></path></svg>