<?xml version="1.0" standalone="no"?><!DOCTYPE svg PUBLIC "-//W3C//DTD SVG 1.1//EN" "http://www.w3.org/Graphics/SVG/1.1/DTD/svg11.dtd"><svg t="1578158073427" class="icon" viewBox="0 0 1024 1024" version="1.1" xmlns="http://www.w3.org/2000/svg" p-id="852" xmlns:xlink="http://www.w3.org/1999/xlink" width="200" height="200"><defs><style type="text/css"></style></defs><path d="M543.63022222-12.97066667c-4.32355555 2.73066667-12.51555555 12.288-18.20444444 21.16266667C498.80177778 48.24177778 458.29688889 70.54222222 411.87555555 70.54222222c-35.72622222 0-64.17066667-12.06044445-89.88444444-37.54666667-8.64711111-8.87466667-18.65955555-19.56977778-22.07288889-24.34844444-3.86844445-5.23377778-10.01244445-9.78488889-16.83911111-12.288-10.24-3.86844445-11.15022222-3.86844445-22.30044444 0-24.12088889 8.64711111-70.99733333 32.54044445-76.00355556 38.68444444-6.82666667 8.87466667-8.192 18.88711111-3.86844444 32.08533334 9.10222222 29.12711111 5.91644445 67.81155555-8.192 96.256-15.70133333 31.85777778-46.87644445 58.70933333-80.55466667 69.17688889-17.29422222 5.46133333-46.42133333 6.82666667-69.40444445 3.41333333-11.15022222-1.82044445-13.42577778-1.36533333-20.48 3.41333334-9.78488889 6.59911111-14.79111111 16.83911111-28.44444444 57.344-15.24622222 45.28355555-13.65333333 54.15822222 13.42577778 69.40444444 17.97688889 10.01244445 39.36711111 33.45066667 49.83466666 53.70311111 18.88711111 37.54666667 19.11466667 79.64444445 0.45511112 117.87377778-8.41955555 17.29422222-20.48 31.17511111-48.69688889 56.43377777-10.01244445 8.87466667-11.60533333 11.60533333-11.60533333 18.65955556 0 9.32977778 13.42577778 42.09777778 29.35466666 71.45244444 8.41955555 15.70133333 12.51555555 20.48 19.34222222 24.1208889 8.192 4.32355555 10.01244445 4.32355555 21.61777778 1.59288888 74.86577778-17.52177778 142.67733333 17.52177778 166.57066667 86.47111112 5.00622222 14.79111111 6.59911111 38.00177778 4.55111111 72.1351111-1.13777778 21.39022222 7.73688889 28.21688889 60.52977778 47.33155556 21.16266667 7.73688889 43.91822222 10.46755555 54.15822222 6.59911111 2.048-0.91022222 8.64711111-8.87466667 14.79111111-17.74933333 20.48-30.72 46.87644445-49.60711111 81.00977778-58.25422222 31.85777778-8.192 57.344-5.46133333 89.65688889 9.32977778 17.29422222 7.96444445 21.84533333 11.60533333 42.55288888 33.2231111l23.21066667 23.89333334 13.19822223-0.91022222c15.01866667-1.13777778 49.60711111-15.24622222 55.97866666-22.75555556 2.048-2.50311111 3.86844445-7.05422222 3.86844444-10.01244444 0-3.41333333-18.432-27.53422222-57.11644444-74.18311112-31.40266667-38.00177778-58.48177778-69.85955555-60.30222222-70.76977777-1.82044445-1.13777778-13.19822222 0.68266667-26.85155556 4.096-101.26222222 25.25866667-205.25511111-4.55111111-281.25866666-80.78222223-58.02666667-58.25422222-86.47111111-125.38311111-86.47111112-204.34488888 0-68.26666667 18.65955555-125.38311111 58.25422223-177.94844445 106.496-141.53955555 310.38577778-158.37866667 438.49955555-36.63644444 45.73866667 43.69066667 74.41066667 95.57333333 88.51911112 160.65422222 4.55111111 21.61777778 3.86844445 81.92-1.36533334 108.77155555-4.32355555 21.84533333-4.32355555 22.30044445 0 27.76177778 2.27555555 2.95822222 35.27111111 28.672 73.27288889 56.88888889 72.36266667 53.70311111 77.14133333 56.20622222 85.78844445 46.64888889 4.32355555-4.77866667 21.61777778-53.02044445 21.61777777-60.30222222-0.22755555-12.06044445-8.64711111-23.66577778-25.25866667-34.36088889-22.528-14.336-39.13955555-32.54044445-50.06222222-54.38577778-9.10222222-18.65955555-15.70133333-43.008-15.70133333-59.16444444 0-15.70133333 6.37155555-40.27733333 15.24622222-58.02666667 8.192-16.83911111 24.34844445-35.04355555 50.06222223-56.88888889 5.23377778-4.32355555 10.24-10.92266667 11.15022222-14.79111111 2.048-8.64711111-4.096-26.85155555-21.61777778-63.71555556-18.88711111-39.59466667-27.53422222-45.28355555-55.97866667-36.18133333-7.05422222 2.27555555-20.02488889 3.64088889-34.13333333 3.86844445-40.96 0.22755555-72.81777778-14.79111111-100.352-46.64888889-24.80355555-28.89955555-35.49866667-65.536-30.26488889-102.85511111 4.77866667-33.22311111 2.27555555-39.36711111-19.56977778-50.06222222C612.57955555-4.55111111 570.93688889-18.20444445 560.69688889-18.20444445c-5.91644445 0-12.06044445 1.82044445-17.06666667 5.23377778z" fill="#1296db" p-id="853"></path><path d="M400.95288889 207.07555555c-15.70133333 2.27555555-20.93511111 7.05422222-20.93511111 18.88711112 0 8.19199999 1.36533333 10.46755555 13.19822222 21.84533333 110.81955555 107.86133333 111.50222222 108.77155556 114.23288889 118.784 3.18577778 11.60533333 1.36533333 25.94133333-4.32355556 34.816-7.05422222 10.46755555-96.256 102.62755555-106.04088888 108.99911113-10.24 7.05422222-27.98933333 8.41955555-40.5048889 2.9582222-4.096-1.59288889-33.90577778-28.89955555-66.44622223-60.30222222-32.54044445-31.63022222-61.44-58.48177778-64.17066665-59.84711112-6.82666667-3.41333333-15.92888889-0.45511111-20.25244445 6.14400001-5.00622222 7.73688889-7.05422222 49.152-3.18577777 74.18311111 13.65333333 94.208 82.14755555 171.12177778 174.53511111 195.92533334 12.288 3.18577778 27.76177778 5.00622222 49.60711111 5.68888888 36.63644445 1.36533333 60.52977778-2.04800001 90.56711111-13.19822222 14.79111111-5.23377778 19.11466667-6.144 21.16266667-3.86844444 1.36533333 1.59288889 70.08711111 81.69244445 152.68977777 178.176 88.29155555 103.08266668 154.28266667 178.17599999 160.19911111 182.27199999 25.48622222 18.20444445 46.87644445 24.80355554 78.27911112 24.80355556 46.42133333 0 84.65066667-20.9351111 110.13688888-60.30222221 30.94755555-47.78666667 24.34844445-116.736-15.2462222-157.69600001-4.55111111-4.77866668-87.83644445-70.99733333-184.77511113-146.77333333-96.93866667-76.00355555-178.63111111-140.17422222-181.36177777-142.67733334l-5.23377778-4.55111111 5.46133333-15.92888889c9.32977778-27.76177779 11.60533333-41.64266667 11.37777776-76.23111111 0-27.07911111-0.91022222-36.63644445-5.23377776-53.248-11.15022222-42.78044445-31.63022222-79.64444445-60.98488889-109.68177777-52.33777778-53.47555555-129.47911111-79.872-202.752-69.1768889z m550.912 664.68977778c12.74311111 3.41333332 27.53422222 18.88711111 32.31288889 33.67822222 15.70133333 48.01422223-46.87644445 86.016-82.60266667 50.28977778-21.61777778-21.39022222-21.61777778-50.28977778-0.45511111-70.99733333 15.01866667-14.56355555 30.72-18.65955555 50.74488889-12.97066667z" fill="#e6e6e6" p-id="854"></path></svg>